<svg id="Layer_1" xmlns="http://www.w3.org/2000/svg" viewBox="0 0 62.1 44"><style>.st0{fill:#fff}</style><path class="st0" d="M34.9 43.9v-3.7h.9v3.7h-.9zM37.8 43.9c0-.1-.1-.1-.1-.2-.1.2-.4.3-.8.3-.6 0-.9-.3-.9-.8 0-.6.5-.8 1.3-.9.3 0 .3-.1.3-.2s-.2-.2-.3-.2c-.3 0-.4.1-.4.3h-.8c0-.6.3-1 1.2-1 .9 0 1.2.4 1.2 1.1V44h-.7zm-.1-1.2s-.1.1-.3.1c-.4.1-.4.2-.4.3 0 .1.1.2.2.2.4 0 .5-.3.5-.5v-.1zM42.7 42.9c-.1.6-.6 1.1-1.3 1.1-.8 0-1.3-.5-1.3-1.5s.5-1.4 1.3-1.4c.7 0 1.2.4 1.3 1h-.9c0-.2-.2-.3-.4-.3s-.4.1-.4.6.2.7.4.7.4-.1.4-.3h.9zM44.6 43.9c0-.1-.1-.1-.1-.2-.1.2-.4.3-.8.3-.6 0-.9-.3-.9-.8 0-.6.5-.8 1.3-.9.3 0 .3-.1.3-.2s-.2-.2-.3-.2c-.3 0-.4.1-.4.3h-.8c0-.6.3-1 1.2-1 .9 0 1.2.4 1.2 1.1V44h-.7zm-.1-1.2s-.1.1-.3.1c-.4.1-.4.2-.4.3 0 .1.1.2.2.2.4 0 .5-.3.5-.5v-.1zM47.3 43.9v-1.7c0-.3-.1-.4-.4-.4-.2 0-.4.1-.4.4v1.7h-.9v-2.7h.8v.3c.1-.2.4-.4.8-.4.5 0 .9.4.9.8v2h-.8zM50.1 43.9v-1.7c0-.3-.1-.4-.4-.4-.2 0-.4.1-.4.4v1.7h-.9v-2.7h.8v.3c.1-.2.4-.4.8-.4.5 0 .9.4.9.8v2h-.8zM51.3 40.9v-.7h.9v.7h-.9zm0 3v-2.7h.9v2.7h-.9zM52.5 43.9v-3.7h.9v1.3c.1-.3.4-.4.7-.4.7 0 1.1.6 1.1 1.4 0 .9-.5 1.5-1.2 1.5-.2 0-.5-.1-.7-.4v.3h-.8zm1.8-1.3c0-.5-.2-.7-.5-.7s-.5.2-.5.7c0 .5.2.7.5.7s.5-.2.5-.7zM57.1 43.9c0-.1-.1-.1-.1-.2-.1.2-.4.3-.8.3-.6 0-.9-.3-.9-.8 0-.6.5-.8 1.3-.9.3 0 .3-.1.3-.2s-.2-.2-.3-.2c-.3 0-.4.1-.4.3h-.8c0-.6.3-1 1.2-1 .9 0 1.2.4 1.2 1.1V44h-.7zm-.1-1.2s-.1.1-.3.1c-.4.1-.4.2-.4.3 0 .1.1.2.2.2.4 0 .5-.3.5-.5v-.1zM58.1 43.9v-3.7h.9v3.7h-.9zM60.1 42.8c0 .3.2.5.5.5.2 0 .3-.1.4-.2h.9c-.2.6-.6.9-1.2.9-.9 0-1.4-.5-1.4-1.5 0-.8.5-1.4 1.3-1.4s1.3.5 1.3 1.4v.3h-1.8zm.9-.5c0-.3-.2-.4-.4-.4-.3 0-.4.1-.4.4h.8zM9.2 41.2h.9v2.7H9l-1.7-2.7h1l1 1.6v-1.6zM11.2 42.8c0 .3.2.5.5.5.2 0 .3-.1.4-.2h.9c-.2.6-.6.9-1.2.9-.9 0-1.4-.5-1.4-1.5 0-.8.5-1.4 1.3-1.4s1.3.5 1.3 1.4v.3h-1.8zm.9-.5c0-.3-.2-.4-.4-.4-.3 0-.4.1-.4.4h.8zM14.8 43.9v-1.7c0-.3-.1-.4-.4-.4-.2 0-.4.1-.4.4v1.7h-.9v-2.7h.9v.3c.1-.2.4-.4.8-.4.5 0 .9.4.9.8v2h-.9zM17.3 43.9h-.9v-2.1h-.5v-.6h.5v-.7h.9v.7h.6v.6h-.6v2.1zM17.9 42.6c0-.9.5-1.4 1.4-1.4.9 0 1.4.6 1.4 1.4 0 .9-.5 1.4-1.4 1.4-.9 0-1.4-.6-1.4-1.4zm2 0c0-.5-.2-.7-.5-.7-.4 0-.5.2-.5.7 0 .5.2.7.5.7s.5-.3.5-.7zM21.9 41.2v1.7c0 .3.1.4.4.4.2 0 .4-.1.4-.4v-1.7h.9v1.9c0 .6-.2.9-1.2.9s-1.3-.4-1.3-.9v-1.9h.8zM23.8 43.9v-2.7h.8v.2c.2-.2.5-.2.7-.2h.1v.8h-.2c-.4 0-.5.1-.5.5v1.4h-.9zM25.6 40.9v-.7h.9v.7h-.9zm0 3v-2.7h.9v2.7h-.9zM28.3 42c0-.2-.1-.3-.4-.3-.3 0-.4.1-.4.2s.1.2.3.2c.8.2 1.3.3 1.3 1 0 .5-.3.9-1.2.9-.8 0-1.3-.4-1.3-.9h.9c0 .2.2.3.4.3s.4 0 .4-.2c0-.1 0-.2-.3-.2-1.1-.2-1.3-.5-1.3-1 0-.4.3-.8 1.2-.8.8 0 1.1.3 1.2.9h-.8zM30.7 43.9h-.9v-2.1h-.5v-.6h.5v-.7h.9v.7h.6v.6h-.6v2.1zM32 43v-.8h2v.8h-2zM42.5 21.5v-9.4h-2.2v-2h.4V6.5l-.7-.7V.3s0-.3-.3-.3-.3.3-.3.3v5.6l-.7.7v3.6h.3v2h-2.2v9.4l-.4 1.4v4H43v-4.1l-.5-1.4z"/><g><path class="st0" d="M13.5 20.6l-4 6.5H6.7v-6.5l-4 6.5H0l6.1-9.5h3.1v5.8l3.6-5.8h3.1v9.5h-2.5v-6.5zM16.6 22.4c0-3.2 1.7-5.2 4.7-5.2s4.7 1.9 4.7 5.2c0 3.3-1.6 5-4.7 5-3 0-4.7-1.8-4.7-5zm7 .1c0-2-.8-3-2.2-3s-2.3 1-2.3 3 .8 2.9 2.3 2.9c1.1-.1 2.2-.9 2.2-2.9zM32.3 27.1l-3.4-5.7v5.7h-2.3v-9.5h2.6l3.1 5.3v-5.3h2.3v9.5h-2.3z"/></g><g><path class="st0" d="M6.7 28.7h2.5v9.5H6.1L0 28.7h2.8l4 6.5v-6.5zM10 38.2v-9.5h7.2v2h-4.8v1.5h4.4v2.1h-4.4v1.9h5v2.1H10zM23.6 38.2l-3.4-5.7v5.7h-2.3v-9.5h2.6l3.1 5.3v-5.3h2.3v9.5h-2.3zM29 38.2v-7.5h-2.7v-2h7.9v2h-2.8v7.5H29zM34.2 33.5c0-3.2 1.7-5.2 4.7-5.2s4.7 1.9 4.7 5.2c0 3.3-1.6 5-4.7 5-3 0-4.7-1.8-4.7-5zm7 .1c0-2-.8-3-2.2-3-1.4 0-2.3 1-2.3 3s.8 2.9 2.3 2.9c1.1-.1 2.2-.9 2.2-2.9zM49.6 28.7h2.5v6.5c0 2.1-1.4 3.3-4 3.3-2.5 0-3.9-1.2-3.9-3.3v-6.5h2.5V35c0 1 .4 1.5 1.4 1.5 1 0 1.4-.5 1.4-1.5v-6.3zM58.7 38.2l-1.5-3-1.7 3h-3.1l3.2-4.9-3-4.7h3.1l1.4 2.8 1.5-2.8h3l-3 4.5 3.2 5h-3.1z"/></g><g><path class="st0" d="M59.9 26.3c0-.3.1-.6.3-.8.2-.2.5-.3.8-.3.3 0 .6.1.8.3.2.2.3.5.3.8 0 .3-.1.6-.3.8-.2.2-.5.3-.8.3-.3 0-.6-.1-.8-.3-.2-.2-.3-.5-.3-.8zm2.1 0c0-.3-.1-.5-.3-.7-.2-.2-.4-.3-.7-.3-.3 0-.5.1-.7.3-.2.2-.3.4-.3.7 0 .3.1.5.3.7.2.2.4.3.7.3.3 0 .5-.1.7-.3.2-.2.3-.4.3-.7zm-.6.7l-.4-.6h-.2v.6h-.2v-1.4h.4c.3 0 .5.1.5.4 0 .2-.1.3-.3.4l.4.6h-.2zm-.6-1.2v.5h.1c.1 0 .2 0 .3-.1 0 0 .1-.1.1-.2 0-.2-.1-.2-.3-.2h-.2z"/></g></svg>