<svg id="Laag_1" xmlns="http://www.w3.org/2000/svg" xmlns:xlink="http://www.w3.org/1999/xlink" viewBox="-54 91 90.3 20"><style>.st0{fill:none;stroke:#000}.st1{clip-path:url(#SVGID_2_)}.st2{clip-path:url(#SVGID_4_)}.st3{clip-path:url(#SVGID_6_)}.st4,.st5{fill:none}.st5{stroke:#000;stroke-width:1.4;stroke-miterlimit:10}</style><path class="st0" d="M-4.3 104.5h39"/><defs><path id="SVGID_1_" d="M-49.3 92H32v19h-81.3z"/></defs><clipPath id="SVGID_2_"><use xlink:href="#SVGID_1_" overflow="visible"/></clipPath><path class="st1" d="M-37.2 100.9c-2.2-3.9.3-2.9.3-2.9v-1.4c0-.6-.7-.7-.7-.7s-1.1-.2-3.6-.3c-2.4 0-4.8 1.3-2.6 5.2 2.3 3.8-.9 2.8-.9 2.8v1.4c0 .6.7.7.7.7s1.8.3 4.2.3c2.5.1 4.9-1.3 2.6-5.1z"/><path d="M5.3 96.1c0-.3-.3-.4-.3-.4-.8-.2-1.3.4-1.5.5-.1-.3-.3-.6-.8-.6H-2s-.9-.1-.9.9v8.7s-.1.9.9.9h4.7s.9.1.9-.9v-7c.2-.2.7-.6 1.4-.4.3.1.3-.2.3-.2v-1.5z"/><defs><path id="SVGID_3_" d="M-49.3 92H32v19h-81.3z"/></defs><clipPath id="SVGID_4_"><use xlink:href="#SVGID_3_" overflow="visible"/></clipPath><path class="st2" d="M13.7 95.6h-.4v-3.2s0-.3-.3-.3h-1.4s-.3 0-.4.3c0 0-.6 2.5-3.9 3.2H6.1s-.3 0-.3.3v1.5s0 .3.3.3h.6v7.5s-.1.9.9.9h4.7s.8 0 .9-.9v-7.5h.4s.3 0 .3-.3v-1.5c.1 0 .1-.3-.2-.3z"/><path class="st0" d="M20.5 98.9l-.1.1"/><g><defs><path id="SVGID_5_" d="M-54 91h90.3v20H-54z"/></defs><clipPath id="SVGID_6_"><use xlink:href="#SVGID_5_" overflow="visible"/></clipPath><path d="M-26.8 95.7c-.1 0-1.3 0-2.3.4-.1-.2-.3-.5-.8-.5h-4.7s-.9-.1-.9.9v10.8s-.1.8.9.9h4.7s.9 0 .9-.9V106c.7 0 1.6.1 2.2.1 2.8 0 5.1-2.3 5.1-5.2s-2.2-5.2-5.1-5.2zm-.7 5.2c0 1.6-.7 3.1-.7 3.1-.2.3-.5.3-.5.3h-.5v-6.8h.5s.3 0 .5.3c.1 0 .8 1.5.7 3.1z" class="st3"/></g><g><path d="M26.9 97.7s-.2-3.3-10.3-1.8c0 0-.3 0-.3.3v1.2s0 .3.3.2c0 0 2.5-.8 3.9.2v.9H18c-2.4 0-4.3 1.6-4.3 3.6s1.9 3.6 4.3 3.6h8s.9 0 .9-.9v-7.3c0 .1 0 .1 0 0zm-6.6 6.2H20s-.2 0-.3-.1c0 0-.5-.7-.5-1.5 0-.7.5-1.5.5-1.5 0-.1.3-.1.3-.1h.4l-.1 3.2z"/><path class="st4" d="M19.6 100.9s-.5.7-.5 1.5.5 1.5.5 1.5c.1.1.3.1.3.1h.4v-3.3H20s-.3 0-.4.2z"/></g><path class="st5" d="M-12.3 109.9c5 0 9-4 9-9s-4-9-9-9-9 4-9 9 4 9 9 9"/><path class="st0" d="M-53.1 104.5h32.5"/></svg>