<svg id="Laag_1" xmlns="http://www.w3.org/2000/svg" viewBox="-204 355.9 185.1 131"><style>.st0{fill:#fff}.st1{fill:#ce964a}</style><path class="st0" d="M-99 486.6v-11.1h2.6v11.1H-99zm8.6 0c-.1-.2-.2-.4-.2-.7-.3.5-1.1.9-2.4.9-1.9 0-2.7-.9-2.7-2.5 0-1.9 1.6-2.4 3.8-2.8.8-.1 1-.3 1-.7s-.5-.6-1-.6c-.8 0-1.1.3-1.2.8h-2.3c0-1.7 1-2.9 3.7-2.9 2.6 0 3.5 1.2 3.5 3.2v5.1h-2.2v.2zm-.4-3.6c-.1.1-.4.2-1 .4-1.1.3-1.3.5-1.3 1 0 .4.3.6.7.6 1.2 0 1.5-.8 1.6-1.5v-.5zm15 .7c-.2 1.9-1.8 3.1-3.8 3.1-2.3 0-3.8-1.5-3.8-4.4s1.5-4.2 3.9-4.2c2.2 0 3.6 1.2 3.8 3.1h-2.7c-.1-.6-.6-.9-1.1-.9-.6 0-1.3.4-1.3 1.9s.6 2.2 1.2 2.2 1.1-.3 1.2-.9h2.6v.1zm5.6 2.9c-.1-.2-.2-.4-.2-.7-.3.5-1.1.9-2.4.9-1.9 0-2.7-.9-2.7-2.5 0-1.9 1.6-2.4 3.8-2.8.8-.1 1-.3 1-.7s-.5-.6-1-.6c-.8 0-1.1.3-1.2.8h-2.3c0-1.7 1-2.9 3.7-2.9 2.6 0 3.5 1.2 3.5 3.2v5.1h-2.2v.2zm-.4-3.6c-.1.1-.4.2-1 .4-1.1.3-1.3.5-1.3 1 0 .4.3.6.7.6 1.2 0 1.5-.8 1.6-1.5v-.5zm8.3 3.6v-5.1c0-.8-.4-1.1-1.1-1.1-.7 0-1.2.3-1.2 1.1v5.1h-2.6v-8.1h2.5v.9c.4-.7 1.2-1.1 2.3-1.1 1.6 0 2.8 1.1 2.8 2.5v5.9h-2.7v-.1zm8.4 0v-5.1c0-.8-.4-1.1-1.1-1.1-.7 0-1.2.3-1.2 1.1v5.1h-2.6v-8.1h2.5v.9c.4-.7 1.2-1.1 2.3-1.1 1.6 0 2.8 1.1 2.8 2.5v5.9h-2.7v-.1zm3.6-9.1v-2h2.6v2h-2.6zm0 9.1v-8.1h2.6v8.1h-2.6zm3.5 0v-11.1h2.6v3.9c.4-.9 1.2-1.1 2.2-1.1 2.1 0 3.3 1.8 3.3 4.2 0 2.7-1.5 4.4-3.5 4.4-.7 0-1.5-.3-2-1.1v.9h-2.6v-.1zm5.4-4c0-1.5-.5-2.1-1.4-2.1s-1.5.6-1.5 2.1.6 2.1 1.5 2.1c.8 0 1.4-.6 1.4-2.1zm8.4 4c-.1-.2-.2-.4-.2-.7-.3.5-1.1.9-2.4.9-1.9 0-2.7-.9-2.7-2.5 0-1.9 1.6-2.4 3.8-2.8.8-.1 1-.3 1-.7s-.5-.6-1-.6c-.8 0-1.1.3-1.2.8H-38c0-1.7 1-2.9 3.7-2.9 2.6 0 3.5 1.2 3.5 3.2v5.1H-33v.2zm-.4-3.6c-.1.1-.4.2-1 .4-1.1.3-1.3.5-1.3 1 0 .4.3.6.7.6 1.2 0 1.6-.8 1.6-1.5v-.5zm3.5 3.6v-11.1h2.6v11.1h-2.6zm5.9-3.4c.1.8.6 1.5 1.4 1.5.5 0 1-.2 1.1-.5h2.7c-.5 1.7-1.9 2.6-3.6 2.6-2.8 0-4.2-1.5-4.2-4.4 0-2.5 1.5-4.1 4-4.1 2.3 0 3.9 1.4 3.9 4.1v.9H-24v-.1zm2.7-1.5c-.1-.9-.5-1.3-1.3-1.3s-1.2.4-1.3 1.3h2.6zm-154.3-3.2h2.6v8.1h-3.3l-5.1-8.1h2.9l3 4.8v-4.8h-.1zm5.9 4.7c.1.8.6 1.5 1.4 1.5.5 0 1-.2 1.1-.5h2.7c-.5 1.7-1.9 2.6-3.6 2.6-2.8 0-4.2-1.5-4.2-4.4 0-2.5 1.5-4.1 4-4.1 2.3 0 3.9 1.4 3.9 4.1v.9h-5.3v-.1zm2.6-1.5c-.1-.9-.5-1.3-1.3-1.3s-1.2.4-1.3 1.3h2.6zm8.2 4.9v-5.1c0-.8-.4-1.1-1.1-1.1s-1.2.3-1.2 1.1v5.1h-2.6v-8.1h2.5v.9c.4-.7 1.2-1.1 2.3-1.1 1.6 0 2.8 1.1 2.8 2.5v5.9h-2.7v-.1zm7.4 0h-2.6v-6.3h-1.5v-1.8h1.5v-2.2h2.6v2.2h1.7v1.8h-1.7v6.3zm1.8-4c0-2.6 1.6-4.3 4.3-4.3 2.6 0 4.2 1.7 4.2 4.3 0 2.6-1.6 4.3-4.2 4.3-2.7-.1-4.3-1.8-4.3-4.3zm5.8 0c0-1.5-.5-2-1.6-2s-1.6.6-1.6 2 .5 2.1 1.6 2.1c1.2-.1 1.6-.7 1.6-2.1zm6-4.1v5.1c0 .8.4 1.1 1.1 1.1.7 0 1.1-.3 1.1-1.1v-5.1h2.6v5.5c0 1.7-.7 2.8-3.7 2.8s-3.7-1.1-3.7-2.8v-5.6h2.6v.1zm5.6 8.1v-8.1h2.5v.5c.7-.7 1.4-.7 2.1-.7h.2v2.7h-.6c-1.1 0-1.6.3-1.6 1.4v4.3h-2.6v-.1zm5.4-9.1v-2h2.6v2h-2.6zm0 9.1v-8.1h2.6v8.1h-2.6zm8.2-5.6c0-.6-.3-.9-1.1-.9s-1.1.2-1.1.5c0 .2.4.5 1 .6 2.3.6 3.9.9 3.9 2.9 0 1.6-.8 2.7-3.7 2.7-2.5 0-3.9-1.1-3.9-2.8h2.7c0 .5.5 1 1.3 1 .7 0 1.1-.1 1.1-.5s-.1-.6-.8-.7c-3.2-.7-4-1.6-4-3.1 0-1.2.9-2.3 3.6-2.3 2.4 0 3.4 1 3.5 2.7l-2.5-.1zm7.1 5.6h-2.6v-6.3h-1.5v-1.8h1.5v-2.2h2.6v2.2h1.7v1.8h-1.7v6.3zm3.9-2.8v-2.3h5.8v2.3h-5.8z"/><path class="st1" d="M-76.5 419.9v-28.1H-83V386h1.1v-10.8l-2.2-1.9v-16.6s.1-.8-.8-.8-.8.8-.8.8v16.6l-2.2 1.9V386h1.1v5.8h-6.5v28.1l-1.2 4.2v12.2h19.4v-12.2l-1.4-4.2z"/><path class="st0" d="M-162.8 417.1l-11.9 19.5h-8.2v-19.5l-11.9 19.4h-8.2l18.1-28.3h9.3v17.3l10.8-17.3h9.3v28.3h-7.3v-19.4zm9.3 5.5c0-9.6 5-15.4 13.9-15.4 9 0 13.9 5.8 13.9 15.5s-4.9 14.8-13.9 14.8c-8.9 0-13.9-5.3-13.9-14.9zm20.6.1c0-6-2.4-9-6.7-9-4.3 0-6.7 3-6.7 9 0 6.1 2.5 8.5 6.7 8.5 3.5 0 6.7-2.5 6.7-8.5zm26.2 13.8l-10.2-16.9v16.9h-6.7v-28.3h7.7l9.1 15.8v-15.8h6.8v28.3h-6.7zm-76.2 4.7h7.3v28.4h-9.3l-18.1-28.4h8.2l11.9 19.5v-19.5zm9.6 28.4v-28.4h21.3v6.1h-14.2v4.4h13v6.1h-13v5.5h14.9v6.3h-22zm40.4 0l-10.2-16.9v16.9h-6.7v-28.4h7.7l9.1 15.8v-15.8h6.8v28.4h-6.7zm16.3 0v-22.3h-8.1v-6.1h23.6v6.1h-8.2v22.3h-7.3zm15.5-14c0-9.6 5-15.4 13.9-15.4 9 0 13.9 5.8 13.9 15.5s-4.9 14.8-13.9 14.8c-8.9 0-13.9-5.3-13.9-14.9zm20.6.2c0-6-2.4-9-6.7-9s-6.7 3-6.7 9c0 6.1 2.5 8.5 6.7 8.5 3.5 0 6.7-2.5 6.7-8.5zm25.1-14.6h7.5v19.5c0 6.4-4.2 9.9-11.9 9.9-7.4 0-11.5-3.5-11.5-9.9v-19.5h7.4V460c0 2.9 1.3 4.5 4.3 4.5 2.9 0 4.3-1.6 4.3-4.5v-18.8h-.1zm27.2 28.4l-4.6-8.9-5 8.9h-9.1l9.5-14.5-8.9-13.9h9.2l4.3 8.2 4.4-8.2h9l-8.8 13.5 9.5 14.8h-9.5v.1zm3.4-35.5c0-.9.3-1.7 1-2.4s1.5-1 2.4-1 1.7.3 2.4 1 1 1.5 1 2.4c0 .9-.3 1.7-1 2.4s-1.5 1-2.4 1-1.7-.3-2.4-1-1-1.4-1-2.4zm6.3 0c0-.8-.3-1.5-.8-2s-1.2-.8-2-.8-1.5.3-2 .8c-.6.6-.8 1.2-.8 2s.3 1.5.8 2c.6.6 1.2.8 2 .8s1.5-.3 2-.8.8-1.2.8-2zm-1.8 2.1l-1.1-1.8h-.6v1.8h-.6V432h1.1c1 0 1.5.4 1.5 1.2 0 .5-.3.9-.8 1.1l1.1 1.9h-.6zm-1.7-3.7v1.4h.4c.4 0 .7 0 .8-.1.1-.1.2-.3.2-.6 0-.5-.3-.7-.9-.7h-.5z"/></svg>