<?xml version="1.0" encoding="utf-8"?>
<!-- Generator: Adobe Illustrator 19.1.0, SVG Export Plug-In . SVG Version: 6.00 Build 0)  -->
<!DOCTYPE svg PUBLIC "-//W3C//DTD SVG 1.1//EN" "http://www.w3.org/Graphics/SVG/1.1/DTD/svg11.dtd">
<svg version="1.1" id="Layer_1" xmlns="http://www.w3.org/2000/svg" xmlns:xlink="http://www.w3.org/1999/xlink" x="0px" y="0px"
	 viewBox="0 0 62.1 44" style="enable-background:new 0 0 62.1 44;" xml:space="preserve">
<style type="text/css">
	.st0{fill:#FFFFFF;}
</style>
<g>
	<path class="st0" d="M34.9,43.9v-3.7h0.9v3.7H34.9z"/>
	<path class="st0" d="M37.8,43.9c0-0.1-0.1-0.1-0.1-0.2c-0.1,0.2-0.4,0.3-0.8,0.3c-0.6,0-0.9-0.3-0.9-0.8c0-0.6,0.5-0.8,1.3-0.9
		c0.3,0,0.3-0.1,0.3-0.2c0-0.1-0.2-0.2-0.3-0.2c-0.3,0-0.4,0.1-0.4,0.3h-0.8c0-0.6,0.3-1,1.2-1c0.9,0,1.2,0.4,1.2,1.1v1.7H37.8z
		 M37.7,42.7c0,0-0.1,0.1-0.3,0.1c-0.4,0.1-0.4,0.2-0.4,0.3c0,0.1,0.1,0.2,0.2,0.2c0.4,0,0.5-0.3,0.5-0.5L37.7,42.7z"/>
	<path class="st0" d="M42.7,42.9c-0.1,0.6-0.6,1.1-1.3,1.1c-0.8,0-1.3-0.5-1.3-1.5c0-1,0.5-1.4,1.3-1.4c0.7,0,1.2,0.4,1.3,1h-0.9
		c0-0.2-0.2-0.3-0.4-0.3c-0.2,0-0.4,0.1-0.4,0.6c0,0.5,0.2,0.7,0.4,0.7c0.2,0,0.4-0.1,0.4-0.3H42.7z"/>
	<path class="st0" d="M44.6,43.9c0-0.1-0.1-0.1-0.1-0.2c-0.1,0.2-0.4,0.3-0.8,0.3c-0.6,0-0.9-0.3-0.9-0.8c0-0.6,0.5-0.8,1.3-0.9
		c0.3,0,0.3-0.1,0.3-0.2c0-0.1-0.2-0.2-0.3-0.2c-0.3,0-0.4,0.1-0.4,0.3h-0.8c0-0.6,0.3-1,1.2-1c0.9,0,1.2,0.4,1.2,1.1v1.7H44.6z
		 M44.5,42.7c0,0-0.1,0.1-0.3,0.1c-0.4,0.1-0.4,0.2-0.4,0.3c0,0.1,0.1,0.2,0.2,0.2c0.4,0,0.5-0.3,0.5-0.5L44.5,42.7z"/>
	<path class="st0" d="M47.3,43.9v-1.7c0-0.3-0.1-0.4-0.4-0.4c-0.2,0-0.4,0.1-0.4,0.4v1.7h-0.9v-2.7h0.8v0.3c0.1-0.2,0.4-0.4,0.8-0.4
		c0.5,0,0.9,0.4,0.9,0.8v2H47.3z"/>
	<path class="st0" d="M50.1,43.9v-1.7c0-0.3-0.1-0.4-0.4-0.4c-0.2,0-0.4,0.1-0.4,0.4v1.7h-0.9v-2.7h0.8v0.3c0.1-0.2,0.4-0.4,0.8-0.4
		c0.5,0,0.9,0.4,0.9,0.8v2H50.1z"/>
	<path class="st0" d="M51.3,40.9v-0.7h0.9v0.7H51.3z M51.3,43.9v-2.7h0.9v2.7H51.3z"/>
	<path class="st0" d="M52.5,43.9v-3.7h0.9v1.3c0.1-0.3,0.4-0.4,0.7-0.4c0.7,0,1.1,0.6,1.1,1.4c0,0.9-0.5,1.5-1.2,1.5
		c-0.2,0-0.5-0.1-0.7-0.4l0,0.3H52.5z M54.3,42.6c0-0.5-0.2-0.7-0.5-0.7s-0.5,0.2-0.5,0.7c0,0.5,0.2,0.7,0.5,0.7
		S54.3,43.1,54.3,42.6z"/>
	<path class="st0" d="M57.1,43.9c0-0.1-0.1-0.1-0.1-0.2c-0.1,0.2-0.4,0.3-0.8,0.3c-0.6,0-0.9-0.3-0.9-0.8c0-0.6,0.5-0.8,1.3-0.9
		c0.3,0,0.3-0.1,0.3-0.2c0-0.1-0.2-0.2-0.3-0.2c-0.3,0-0.4,0.1-0.4,0.3h-0.8c0-0.6,0.3-1,1.2-1c0.9,0,1.2,0.4,1.2,1.1v1.7H57.1z
		 M57,42.7c0,0-0.1,0.1-0.3,0.1c-0.4,0.1-0.4,0.2-0.4,0.3c0,0.1,0.1,0.2,0.2,0.2c0.4,0,0.5-0.3,0.5-0.5L57,42.7z"/>
	<path class="st0" d="M58.1,43.9v-3.7H59v3.7H58.1z"/>
	<path class="st0" d="M60.1,42.8c0,0.3,0.2,0.5,0.5,0.5c0.2,0,0.3-0.1,0.4-0.2h0.9c-0.2,0.6-0.6,0.9-1.2,0.9c-0.9,0-1.4-0.5-1.4-1.5
		c0-0.8,0.5-1.4,1.3-1.4c0.8,0,1.3,0.5,1.3,1.4c0,0.1,0,0.2,0,0.3H60.1z M61,42.3c0-0.3-0.2-0.4-0.4-0.4c-0.3,0-0.4,0.1-0.4,0.4H61z
		"/>
</g>
<path class="st0" d="M9.2,41.2h0.9v2.7H9l-1.7-2.7h1l1,1.6V41.2z"/>
<path class="st0" d="M11.2,42.8c0,0.3,0.2,0.5,0.5,0.5c0.2,0,0.3-0.1,0.4-0.2h0.9c-0.2,0.6-0.6,0.9-1.2,0.9c-0.9,0-1.4-0.5-1.4-1.5
	c0-0.8,0.5-1.4,1.3-1.4c0.8,0,1.3,0.5,1.3,1.4c0,0.1,0,0.2,0,0.3H11.2z M12.1,42.3c0-0.3-0.2-0.4-0.4-0.4c-0.3,0-0.4,0.1-0.4,0.4
	H12.1z"/>
<path class="st0" d="M14.8,43.9v-1.7c0-0.3-0.1-0.4-0.4-0.4c-0.2,0-0.4,0.1-0.4,0.4v1.7h-0.9v-2.7H14v0.3c0.1-0.2,0.4-0.4,0.8-0.4
	c0.5,0,0.9,0.4,0.9,0.8v2H14.8z"/>
<path class="st0" d="M17.3,43.9h-0.9v-2.1h-0.5v-0.6h0.5v-0.7h0.9v0.7h0.6v0.6h-0.6V43.9z"/>
<path class="st0" d="M17.9,42.6c0-0.9,0.5-1.4,1.4-1.4c0.9,0,1.4,0.6,1.4,1.4c0,0.9-0.5,1.4-1.4,1.4C18.4,44,17.9,43.4,17.9,42.6z
	 M19.9,42.6c0-0.5-0.2-0.7-0.5-0.7c-0.4,0-0.5,0.2-0.5,0.7c0,0.5,0.2,0.7,0.5,0.7C19.7,43.3,19.9,43,19.9,42.6z"/>
<path class="st0" d="M21.9,41.2v1.7c0,0.3,0.1,0.4,0.4,0.4c0.2,0,0.4-0.1,0.4-0.4v-1.7h0.9v1.9c0,0.6-0.2,0.9-1.2,0.9
	c-1,0-1.3-0.4-1.3-0.9v-1.9H21.9z"/>
<path class="st0" d="M23.8,43.9v-2.7h0.8v0.2c0.2-0.2,0.5-0.2,0.7-0.2h0.1V42c-0.1,0-0.1,0-0.2,0c-0.4,0-0.5,0.1-0.5,0.5v1.4H23.8z"
	/>
<path class="st0" d="M25.6,40.9v-0.7h0.9v0.7H25.6z M25.6,43.9v-2.7h0.9v2.7H25.6z"/>
<path class="st0" d="M28.3,42c0-0.2-0.1-0.3-0.4-0.3c-0.3,0-0.4,0.1-0.4,0.2c0,0.1,0.1,0.2,0.3,0.2c0.8,0.2,1.3,0.3,1.3,1
	c0,0.5-0.3,0.9-1.2,0.9c-0.8,0-1.3-0.4-1.3-0.9h0.9c0,0.2,0.2,0.3,0.4,0.3c0.2,0,0.4,0,0.4-0.2c0-0.1,0-0.2-0.3-0.2
	c-1.1-0.2-1.3-0.5-1.3-1c0-0.4,0.3-0.8,1.2-0.8c0.8,0,1.1,0.3,1.2,0.9H28.3z"/>
<path class="st0" d="M30.7,43.9h-0.9v-2.1h-0.5v-0.6h0.5v-0.7h0.9v0.7h0.6v0.6h-0.6V43.9z"/>
<path class="st0" d="M32,43v-0.8H34V43H32z"/>
<path class="st0" d="M42.5,21.5v-9.4h-2.2v-2h0.4V6.5l-0.7-0.7V0.3c0,0,0-0.3-0.3-0.3l0,0c0,0,0,0,0,0c0,0,0,0,0,0l0,0
	c-0.3,0-0.3,0.3-0.3,0.3v5.6l-0.7,0.7v3.6H39v2h-2.2v9.4l-0.4,1.4V27h3.3h0h3.3v-4.1L42.5,21.5z"/>
<g>
	<path class="st0" d="M13.5,20.6l-4,6.5H6.7v-6.5l-4,6.5H0l6.1-9.5h3.1v5.8l3.6-5.8h3.1v9.5h-2.5V20.6z"/>
	<path class="st0" d="M16.6,22.4c0-3.2,1.7-5.2,4.7-5.2c3,0,4.7,1.9,4.7,5.2c0,3.3-1.6,5-4.7,5C18.3,27.4,16.6,25.6,16.6,22.4z
		 M23.6,22.5c0-2-0.8-3-2.2-3s-2.3,1-2.3,3c0,2,0.8,2.9,2.3,2.9C22.5,25.3,23.6,24.5,23.6,22.5z"/>
	<path class="st0" d="M32.3,27.1l-3.4-5.7v5.7h-2.3v-9.5h2.6l3.1,5.3v-5.3h2.3v9.5H32.3z"/>
</g>
<g>
	<path class="st0" d="M6.7,28.7h2.5v9.5H6.1L0,28.7h2.8l4,6.5V28.7z"/>
	<path class="st0" d="M10,38.2v-9.5h7.2v2h-4.8v1.5h4.4v2.1h-4.4v1.9h5v2.1H10z"/>
	<path class="st0" d="M23.6,38.2l-3.4-5.7v5.7h-2.3v-9.5h2.6l3.1,5.3v-5.3h2.3v9.5H23.6z"/>
	<path class="st0" d="M29,38.2v-7.5h-2.7v-2h7.9v2h-2.8v7.5H29z"/>
	<path class="st0" d="M34.2,33.5c0-3.2,1.7-5.2,4.7-5.2c3,0,4.7,1.9,4.7,5.2c0,3.3-1.6,5-4.7,5C35.9,38.5,34.2,36.7,34.2,33.5z
		 M41.2,33.6c0-2-0.8-3-2.2-3c-1.4,0-2.3,1-2.3,3c0,2,0.8,2.9,2.3,2.9C40.1,36.4,41.2,35.6,41.2,33.6z"/>
	<path class="st0" d="M49.6,28.7h2.5v6.5c0,2.1-1.4,3.3-4,3.3c-2.5,0-3.9-1.2-3.9-3.3v-6.5h2.5V35c0,1,0.4,1.5,1.4,1.5
		c1,0,1.4-0.5,1.4-1.5V28.7z"/>
	<path class="st0" d="M58.7,38.2l-1.5-3l-1.7,3h-3.1l3.2-4.9l-3-4.7h3.1l1.4,2.8l1.5-2.8h3l-3,4.5l3.2,5H58.7z"/>
</g>
<g>
	<path class="st0" d="M59.9,26.3c0-0.3,0.1-0.6,0.3-0.8c0.2-0.2,0.5-0.3,0.8-0.3c0.3,0,0.6,0.1,0.8,0.3c0.2,0.2,0.3,0.5,0.3,0.8
		c0,0.3-0.1,0.6-0.3,0.8c-0.2,0.2-0.5,0.3-0.8,0.3c-0.3,0-0.6-0.1-0.8-0.3C60,26.9,59.9,26.6,59.9,26.3z M62,26.3
		c0-0.3-0.1-0.5-0.3-0.7c-0.2-0.2-0.4-0.3-0.7-0.3c-0.3,0-0.5,0.1-0.7,0.3C60.1,25.8,60,26,60,26.3c0,0.3,0.1,0.5,0.3,0.7
		c0.2,0.2,0.4,0.3,0.7,0.3c0.3,0,0.5-0.1,0.7-0.3C61.9,26.8,62,26.6,62,26.3z M61.4,27L61,26.4h-0.2V27h-0.2v-1.4H61
		c0.3,0,0.5,0.1,0.5,0.4c0,0.2-0.1,0.3-0.3,0.4l0.4,0.6H61.4z M60.8,25.8v0.5c0,0,0.1,0,0.1,0c0.1,0,0.2,0,0.3-0.1
		c0,0,0.1-0.1,0.1-0.2c0-0.2-0.1-0.2-0.3-0.2L60.8,25.8L60.8,25.8z"/>
</g>
</svg>