<?xml version="1.0" encoding="utf-8"?>
<!-- Generator: Adobe Illustrator 19.1.0, SVG Export Plug-In . SVG Version: 6.00 Build 0)  -->
<!DOCTYPE svg PUBLIC "-//W3C//DTD SVG 1.1//EN" "http://www.w3.org/Graphics/SVG/1.1/DTD/svg11.dtd">
<svg version="1.1" id="Layer_1" xmlns="http://www.w3.org/2000/svg" xmlns:xlink="http://www.w3.org/1999/xlink" x="0px" y="0px"
	 viewBox="0 0 274.6 206.6" style="enable-background:new 0 0 274.6 206.6;" xml:space="preserve">
<style type="text/css">
	.st0{fill:#509FC5;}
</style>
<path class="st0" d="M87.3,27.8l17.9,19H72L87.3,27.8z M87.2,25L47.8,73.4l-5.2-3.9L0,112.4l32.7,61.7l54.8,32.5l54.7-32.7
	l32.5-61.8l-54.4-61.5l-6.5,2.2L87.2,25z"/>
<path class="st0" d="M187.3,2.8l17.9,19H172L187.3,2.8z M187.2,0l-39.4,48.4l-5.2-3.9l-42.5,43l32.7,61.7l54.8,32.5l54.7-32.7
	l32.5-61.8l-54.4-61.5l-6.5,2.2L187.2,0z"/>
</svg>
