<?xml version="1.0" encoding="utf-8"?>
<!-- Generator: Adobe Illustrator 19.1.0, SVG Export Plug-In . SVG Version: 6.00 Build 0)  -->
<!DOCTYPE svg PUBLIC "-//W3C//DTD SVG 1.1//EN" "http://www.w3.org/Graphics/SVG/1.1/DTD/svg11.dtd">
<svg version="1.1" id="Laag_1" xmlns="http://www.w3.org/2000/svg" xmlns:xlink="http://www.w3.org/1999/xlink" x="0px" y="0px"
	 viewBox="-54 91 90.3 20" style="enable-background:new -54 91 90.3 20;" xml:space="preserve">
<style type="text/css">
	.st0{fill:none;stroke:#FFFFFF;}
	.st1{clip-path:url(#SVGID_2_);fill:#FFFFFF;}
	.st2{clip-path:url(#SVGID_4_);fill:#FFFFFF;}
	.st3{clip-path:url(#SVGID_6_);fill:#FFFFFF;}
	.st4{fill:none;stroke:#000000;}
	.st5{clip-path:url(#SVGID_8_);}
	.st6{fill:#FFFFFF;}
	.st7{fill:none;}
	.st8{fill:none;stroke:#FFFFFF;stroke-width:1.4;stroke-miterlimit:10;}
</style>
<g>
	<line class="st0" x1="-4.3" y1="104.5" x2="34.7" y2="104.5"/>
	<g>
		<g>
			<defs>
				<rect id="SVGID_1_" x="-49.3" y="92" width="81.3" height="19"/>
			</defs>
			<clipPath id="SVGID_2_">
				<use xlink:href="#SVGID_1_"  style="overflow:visible;"/>
			</clipPath>
			<path class="st1" d="M-37.2,100.9c-2.2-3.9,0.3-2.9,0.3-2.9c0-0.3,0-0.6,0-0.6v-0.8c0-0.6-0.7-0.7-0.7-0.7s-1.1-0.2-3.6-0.3
				c-2.4,0-4.8,1.3-2.6,5.2c2.3,3.8-0.9,2.8-0.9,2.8c0,0.1,0,0.6,0,0.6v0.8c0,0.6,0.7,0.7,0.7,0.7s1.8,0.3,4.2,0.3
				C-37.3,106.1-34.9,104.7-37.2,100.9z"/>
		</g>
		<g>
			<defs>
				<rect id="SVGID_3_" x="-49.3" y="92" width="81.3" height="19"/>
			</defs>
			<clipPath id="SVGID_4_">
				<use xlink:href="#SVGID_3_"  style="overflow:visible;"/>
			</clipPath>
			<path class="st2" d="M5.3,96.1c0-0.3-0.3-0.4-0.3-0.4c-0.8-0.2-1.3,0.4-1.5,0.5c-0.1-0.3-0.3-0.6-0.8-0.6H-2c0,0-0.9-0.1-0.9,0.9
				v8.7c0,0-0.1,0.9,0.9,0.9h4.7c0,0,0.9,0.1,0.9-0.9v-7C3.8,98,4.3,97.6,5,97.8c0.3,0.1,0.3-0.2,0.3-0.2
				C5.3,97.2,5.3,97.2,5.3,96.1z"/>
		</g>
		<g>
			<defs>
				<rect id="SVGID_5_" x="-49.3" y="92" width="81.3" height="19"/>
			</defs>
			<clipPath id="SVGID_6_">
				<use xlink:href="#SVGID_5_"  style="overflow:visible;"/>
			</clipPath>
			<path class="st3" d="M13.7,95.6h-0.4v-3.2c0,0,0-0.3-0.3-0.3h-1.4c0,0-0.3,0-0.4,0.3c0,0-0.6,2.5-3.9,3.2H6.1c0,0-0.3,0-0.3,0.3
				v1.5c0,0,0,0.3,0.3,0.3h0.6v7.5c0,0-0.1,0.9,0.9,0.9h4.7c0,0,0.8,0,0.9-0.9v-7.5h0.4c0,0,0.3,0,0.3-0.3v-1.5
				C14,95.9,14,95.6,13.7,95.6z"/>
		</g>
	</g>
	<line class="st4" x1="20.5" y1="98.9" x2="20.4" y2="99"/>
	<g>
		<g>
			<defs>
				<rect id="SVGID_7_" x="-54" y="91" width="90.3" height="20"/>
			</defs>
			<clipPath id="SVGID_8_">
				<use xlink:href="#SVGID_7_"  style="overflow:visible;"/>
			</clipPath>
			<g class="st5">
				<path class="st6" d="M-26.8,95.7c-0.1,0-1.3,0-2.3,0.4c-0.1-0.2-0.3-0.5-0.8-0.5h-4.7c0,0-0.9-0.1-0.9,0.9v10.8
					c0,0-0.1,0.8,0.9,0.9h4.7c0,0,0.9,0,0.9-0.9V106c0.7,0,1.6,0.1,2.2,0.1c2.8,0,5.1-2.3,5.1-5.2S-23.9,95.7-26.8,95.7z
					 M-27.5,100.9c0,1.6-0.7,3.1-0.7,3.1c-0.2,0.3-0.5,0.3-0.5,0.3h-0.5v-6.8h0.5c0,0,0.3,0,0.5,0.3
					C-28.1,97.8-27.4,99.3-27.5,100.9L-27.5,100.9z"/>
			</g>
		</g>
	</g>
	<g>
		<path class="st6" d="M26.9,97.7L26.9,97.7c0,0-0.2-3.3-10.3-1.8c0,0-0.3,0-0.3,0.3v1.2c0,0,0,0.3,0.3,0.2c0,0,2.5-0.8,3.9,0.2v0.9
			H18c-2.4,0-4.3,1.6-4.3,3.6s1.9,3.6,4.3,3.6h2.6l0,0h0.1H26c0,0,0.9,0,0.9-0.9V97.7C26.9,97.8,26.9,97.8,26.9,97.7z M20.3,103.9
			H20c0,0-0.2,0-0.3-0.1c0,0-0.5-0.7-0.5-1.5l0,0c0-0.7,0.5-1.5,0.5-1.5c0-0.1,0.3-0.1,0.3-0.1h0.4L20.3,103.9L20.3,103.9z"/>
		<path class="st7" d="M19.6,100.9c0,0-0.5,0.7-0.5,1.5l0,0c0,0.8,0.5,1.5,0.5,1.5c0.1,0.1,0.3,0.1,0.3,0.1h0.4v-3.3H20
			C20,100.7,19.7,100.7,19.6,100.9z"/>
	</g>
	<path class="st8" d="M-12.3,109.9c5,0,9-4,9-9s-4-9-9-9s-9,4-9,9S-17.3,109.9-12.3,109.9"/>
	<line class="st0" x1="-53.1" y1="104.5" x2="-20.6" y2="104.5"/>
</g>
</svg>
