<?xml version="1.0" encoding="utf-8"?>
<!-- Generator: Adobe Illustrator 19.1.0, SVG Export Plug-In . SVG Version: 6.00 Build 0)  -->
<svg version="1.1" id="Laag_1" xmlns="http://www.w3.org/2000/svg" xmlns:xlink="http://www.w3.org/1999/xlink" x="0px" y="0px"
	 viewBox="-204 355.9 185.1 131" style="enable-background:new -204 355.9 185.1 131;" xml:space="preserve">
<style type="text/css">
	.st0{fill:#FFFFFF;}
	.st1{fill:#CE964A;}
</style>
<path class="st0" d="M-99,486.6v-11.1h2.6v11.1H-99z M-90.4,486.6c-0.1-0.2-0.2-0.4-0.2-0.7c-0.3,0.5-1.1,0.9-2.4,0.9
	c-1.9,0-2.7-0.9-2.7-2.5c0-1.9,1.6-2.4,3.8-2.8c0.8-0.1,1-0.3,1-0.7s-0.5-0.6-1-0.6c-0.8,0-1.1,0.3-1.2,0.8h-2.3
	c0-1.7,1-2.9,3.7-2.9c2.6,0,3.5,1.2,3.5,3.2v5.1h-2.2L-90.4,486.6z M-90.8,483c-0.1,0.1-0.4,0.2-1,0.4c-1.1,0.3-1.3,0.5-1.3,1
	c0,0.4,0.3,0.6,0.7,0.6c1.2,0,1.5-0.8,1.6-1.5V483z M-75.8,483.7c-0.2,1.9-1.8,3.1-3.8,3.1c-2.3,0-3.8-1.5-3.8-4.4s1.5-4.2,3.9-4.2
	c2.2,0,3.6,1.2,3.8,3.1h-2.7c-0.1-0.6-0.6-0.9-1.1-0.9c-0.6,0-1.3,0.4-1.3,1.9s0.6,2.2,1.2,2.2s1.1-0.3,1.2-0.9h2.6L-75.8,483.7z
	 M-70.2,486.6c-0.1-0.2-0.2-0.4-0.2-0.7c-0.3,0.5-1.1,0.9-2.4,0.9c-1.9,0-2.7-0.9-2.7-2.5c0-1.9,1.6-2.4,3.8-2.8
	c0.8-0.1,1-0.3,1-0.7s-0.5-0.6-1-0.6c-0.8,0-1.1,0.3-1.2,0.8h-2.3c0-1.7,1-2.9,3.7-2.9c2.6,0,3.5,1.2,3.5,3.2v5.1h-2.2L-70.2,486.6z
	 M-70.6,483c-0.1,0.1-0.4,0.2-1,0.4c-1.1,0.3-1.3,0.5-1.3,1c0,0.4,0.3,0.6,0.7,0.6c1.2,0,1.5-0.8,1.6-1.5V483z M-62.3,486.6v-5.1
	c0-0.8-0.4-1.1-1.1-1.1c-0.7,0-1.2,0.3-1.2,1.1v5.1h-2.6v-8.1h2.5v0.9c0.4-0.7,1.2-1.1,2.3-1.1c1.6,0,2.8,1.1,2.8,2.5v5.9h-2.7
	V486.6z M-53.9,486.6v-5.1c0-0.8-0.4-1.1-1.1-1.1c-0.7,0-1.2,0.3-1.2,1.1v5.1h-2.6v-8.1h2.5v0.9c0.4-0.7,1.2-1.1,2.3-1.1
	c1.6,0,2.8,1.1,2.8,2.5v5.9h-2.7V486.6z M-50.3,477.5v-2h2.6v2H-50.3z M-50.3,486.6v-8.1h2.6v8.1H-50.3z M-46.8,486.6v-11.1h2.6v3.9
	c0.4-0.9,1.2-1.1,2.2-1.1c2.1,0,3.3,1.8,3.3,4.2c0,2.7-1.5,4.4-3.5,4.4c-0.7,0-1.5-0.3-2-1.1v0.9h-2.6V486.6z M-41.4,482.6
	c0-1.5-0.5-2.1-1.4-2.1s-1.5,0.6-1.5,2.1s0.6,2.1,1.5,2.1C-42,484.7-41.4,484.1-41.4,482.6z M-33,486.6c-0.1-0.2-0.2-0.4-0.2-0.7
	c-0.3,0.5-1.1,0.9-2.4,0.9c-1.9,0-2.7-0.9-2.7-2.5c0-1.9,1.6-2.4,3.8-2.8c0.8-0.1,1-0.3,1-0.7s-0.5-0.6-1-0.6
	c-0.8,0-1.1,0.3-1.2,0.8H-38c0-1.7,1-2.9,3.7-2.9c2.6,0,3.5,1.2,3.5,3.2v5.1H-33L-33,486.6z M-33.4,483c-0.1,0.1-0.4,0.2-1,0.4
	c-1.1,0.3-1.3,0.5-1.3,1c0,0.4,0.3,0.6,0.7,0.6c1.2,0,1.6-0.8,1.6-1.5L-33.4,483L-33.4,483z M-29.9,486.6v-11.1h2.6v11.1H-29.9z
	 M-24,483.2c0.1,0.8,0.6,1.5,1.4,1.5c0.5,0,1-0.2,1.1-0.5h2.7c-0.5,1.7-1.9,2.6-3.6,2.6c-2.8,0-4.2-1.5-4.2-4.4c0-2.5,1.5-4.1,4-4.1
	c2.3,0,3.9,1.4,3.9,4.1v0.9H-24V483.2z M-21.3,481.7c-0.1-0.9-0.5-1.3-1.3-1.3s-1.2,0.4-1.3,1.3H-21.3L-21.3,481.7z M-175.6,478.5
	h2.6v8.1h-3.3l-5.1-8.1h2.9l3,4.8v-4.8H-175.6z M-169.7,483.2c0.1,0.8,0.6,1.5,1.4,1.5c0.5,0,1-0.2,1.1-0.5h2.7
	c-0.5,1.7-1.9,2.6-3.6,2.6c-2.8,0-4.2-1.5-4.2-4.4c0-2.5,1.5-4.1,4-4.1c2.3,0,3.9,1.4,3.9,4.1v0.9h-5.3L-169.7,483.2z M-167.1,481.7
	c-0.1-0.9-0.5-1.3-1.3-1.3c-0.8,0-1.2,0.4-1.3,1.3C-169.7,481.7-167.1,481.7-167.1,481.7z M-158.9,486.6v-5.1c0-0.8-0.4-1.1-1.1-1.1
	s-1.2,0.3-1.2,1.1v5.1h-2.6v-8.1h2.5v0.9c0.4-0.7,1.2-1.1,2.3-1.1c1.6,0,2.8,1.1,2.8,2.5v5.9h-2.7V486.6z M-151.5,486.6h-2.6v-6.3
	h-1.5v-1.8h1.5v-2.2h2.6v2.2h1.7v1.8h-1.7V486.6z M-149.7,482.6c0-2.6,1.6-4.3,4.3-4.3c2.6,0,4.2,1.7,4.2,4.3c0,2.6-1.6,4.3-4.2,4.3
	C-148.1,486.8-149.7,485.1-149.7,482.6z M-143.9,482.6c0-1.5-0.5-2-1.6-2s-1.6,0.6-1.6,2c0,1.4,0.5,2.1,1.6,2.1
	C-144.3,484.6-143.9,484-143.9,482.6z M-137.9,478.5v5.1c0,0.8,0.4,1.1,1.1,1.1c0.7,0,1.1-0.3,1.1-1.1v-5.1h2.6v5.5
	c0,1.7-0.7,2.8-3.7,2.8s-3.7-1.1-3.7-2.8v-5.6h2.6L-137.9,478.5z M-132.3,486.6v-8.1h2.5v0.5c0.7-0.7,1.4-0.7,2.1-0.7h0.2v2.7h-0.6
	c-1.1,0-1.6,0.3-1.6,1.4v4.3h-2.6L-132.3,486.6z M-126.9,477.5v-2h2.6v2H-126.9z M-126.9,486.6v-8.1h2.6v8.1H-126.9z M-118.7,481
	c0-0.6-0.3-0.9-1.1-0.9s-1.1,0.2-1.1,0.5c0,0.2,0.4,0.5,1,0.6c2.3,0.6,3.9,0.9,3.9,2.9c0,1.6-0.8,2.7-3.7,2.7
	c-2.5,0-3.9-1.1-3.9-2.8h2.7c0,0.5,0.5,1,1.3,1c0.7,0,1.1-0.1,1.1-0.5c0-0.4-0.1-0.6-0.8-0.7c-3.2-0.7-4-1.6-4-3.1
	c0-1.2,0.9-2.3,3.6-2.3c2.4,0,3.4,1,3.5,2.7L-118.7,481L-118.7,481z M-111.6,486.6h-2.6v-6.3h-1.5v-1.8h1.5v-2.2h2.6v2.2h1.7v1.8
	h-1.7V486.6z M-107.7,483.8v-2.3h5.8v2.3H-107.7z"/>
<path class="st1" d="M-76.5,419.9v-28.1H-83V386h1.1v-10.8l-2.2-1.9v-16.6c0,0,0.1-0.8-0.8-0.8s-0.8,0.8-0.8,0.8v16.6l-2.2,1.9V386
	h1.1v5.8h-6.5v28.1l-1.2,4.2v12.2h19.4v-12.2L-76.5,419.9L-76.5,419.9z"/>
<path class="st0" d="M-162.8,417.1l-11.9,19.5h-8.2v-19.5l-11.9,19.4h-8.2l18.1-28.3h9.3v17.3l10.8-17.3h9.3v28.3h-7.3V417.1z
	 M-153.5,422.6c0-9.6,5-15.4,13.9-15.4c9,0,13.9,5.8,13.9,15.5c0,9.7-4.9,14.8-13.9,14.8C-148.5,437.5-153.5,432.2-153.5,422.6z
	 M-132.9,422.7c0-6-2.4-9-6.7-9c-4.3,0-6.7,3-6.7,9c0,6.1,2.5,8.5,6.7,8.5C-136.1,431.2-132.9,428.7-132.9,422.7z M-106.7,436.5
	l-10.2-16.9v16.9h-6.7v-28.3h7.7l9.1,15.8v-15.8h6.8v28.3H-106.7L-106.7,436.5z M-182.9,441.2h7.3v28.4h-9.3l-18.1-28.4h8.2
	l11.9,19.5V441.2z M-173.3,469.6v-28.4h21.3v6.1h-14.2v4.4h13v6.1h-13v5.5h14.9v6.3H-173.3z M-132.9,469.6l-10.2-16.9v16.9h-6.7
	v-28.4h7.7l9.1,15.8v-15.8h6.8v28.4H-132.9L-132.9,469.6z M-116.6,469.6v-22.3h-8.1v-6.1h23.6v6.1h-8.2v22.3H-116.6z M-101.1,455.6
	c0-9.6,5-15.4,13.9-15.4c9,0,13.9,5.8,13.9,15.5c0,9.7-4.9,14.8-13.9,14.8C-96.1,470.5-101.1,465.2-101.1,455.6z M-80.5,455.8
	c0-6-2.4-9-6.7-9s-6.7,3-6.7,9c0,6.1,2.5,8.5,6.7,8.5C-83.7,464.3-80.5,461.8-80.5,455.8z M-55.4,441.2h7.5v19.5
	c0,6.4-4.2,9.9-11.9,9.9c-7.4,0-11.5-3.5-11.5-9.9v-19.5h7.4V460c0,2.9,1.3,4.5,4.3,4.5c2.9,0,4.3-1.6,4.3-4.5v-18.8H-55.4z
	 M-28.2,469.6l-4.6-8.9l-5,8.9h-9.1l9.5-14.5l-8.9-13.9h9.2l4.3,8.2l4.4-8.2h9l-8.8,13.5l9.5,14.8h-9.5V469.6z M-24.8,434.1
	c0-0.9,0.3-1.7,1-2.4c0.7-0.7,1.5-1,2.4-1s1.7,0.3,2.4,1c0.7,0.7,1,1.5,1,2.4c0,0.9-0.3,1.7-1,2.4c-0.7,0.7-1.5,1-2.4,1
	s-1.7-0.3-2.4-1C-24.5,435.8-24.8,435.1-24.8,434.1z M-18.5,434.1c0-0.8-0.3-1.5-0.8-2s-1.2-0.8-2-0.8s-1.5,0.3-2,0.8
	c-0.6,0.6-0.8,1.2-0.8,2c0,0.8,0.3,1.5,0.8,2c0.6,0.6,1.2,0.8,2,0.8s1.5-0.3,2-0.8S-18.5,434.9-18.5,434.1z M-20.3,436.2l-1.1-1.8
	H-22v1.8h-0.6V432h1.1c1,0,1.5,0.4,1.5,1.2c0,0.5-0.3,0.9-0.8,1.1l1.1,1.9H-20.3z M-22,432.5v1.4h0.4c0.4,0,0.7,0,0.8-0.1
	c0.1-0.1,0.2-0.3,0.2-0.6c0-0.5-0.3-0.7-0.9-0.7C-21.5,432.5-22,432.5-22,432.5z"/>
</svg>
