<?xml version="1.0" encoding="utf-8"?>
<!-- Generator: Adobe Illustrator 19.1.0, SVG Export Plug-In . SVG Version: 6.00 Build 0)  -->
<!DOCTYPE svg PUBLIC "-//W3C//DTD SVG 1.1//EN" "http://www.w3.org/Graphics/SVG/1.1/DTD/svg11.dtd">
<svg version="1.1" id="Layer_1" xmlns="http://www.w3.org/2000/svg" xmlns:xlink="http://www.w3.org/1999/xlink" x="0px" y="0px"
	 viewBox="89.6 -20.8 185.1 131" style="enable-background:new 89.6 -20.8 185.1 131;" xml:space="preserve">
<style type="text/css">
	.st0{fill:#FFFFFF;}
	.st1{fill:#EE4034;}
</style>
<g>
	<path class="st0" d="M193.6,110V98.9h2.6V110H193.6z"/>
	<path class="st0" d="M202.2,110c-0.1-0.2-0.2-0.4-0.2-0.7c-0.3,0.5-1.1,0.9-2.4,0.9c-1.9,0-2.7-0.9-2.7-2.5c0-1.9,1.6-2.4,3.8-2.8
		c0.8-0.1,1-0.3,1-0.7c0-0.4-0.5-0.6-1-0.6c-0.8,0-1.1,0.3-1.2,0.8h-2.3c0-1.7,1-2.9,3.7-2.9c2.6,0,3.5,1.2,3.5,3.2v5.1H202.2z
		 M201.8,106.4c-0.1,0.1-0.4,0.2-1,0.4c-1.1,0.3-1.3,0.5-1.3,1c0,0.4,0.3,0.6,0.7,0.6c1.2,0,1.5-0.8,1.6-1.5L201.8,106.4z"/>
	<path class="st0" d="M216.8,107.1c-0.2,1.9-1.8,3.1-3.8,3.1c-2.3,0-3.8-1.5-3.8-4.4c0-2.9,1.5-4.2,3.9-4.2c2.2,0,3.6,1.2,3.8,3.1
		h-2.7c-0.1-0.6-0.6-0.9-1.1-0.9c-0.6,0-1.3,0.4-1.3,1.9c0,1.5,0.6,2.2,1.2,2.2c0.6,0,1.1-0.3,1.2-0.9H216.8z"/>
	<path class="st0" d="M222.4,110c-0.1-0.2-0.2-0.4-0.2-0.7c-0.3,0.5-1.1,0.9-2.4,0.9c-1.9,0-2.7-0.9-2.7-2.5c0-1.9,1.6-2.4,3.8-2.8
		c0.8-0.1,1-0.3,1-0.7c0-0.4-0.5-0.6-1-0.6c-0.8,0-1.1,0.3-1.2,0.8h-2.3c0-1.7,1-2.9,3.7-2.9c2.6,0,3.5,1.2,3.5,3.2v5.1H222.4z
		 M222,106.4c-0.1,0.1-0.4,0.2-1,0.4c-1.1,0.3-1.3,0.5-1.3,1c0,0.4,0.3,0.6,0.7,0.6c1.2,0,1.5-0.8,1.6-1.5L222,106.4z"/>
	<path class="st0" d="M230.3,110v-5.1c0-0.8-0.4-1.1-1.1-1.1c-0.7,0-1.2,0.3-1.2,1.1v5.1h-2.6v-8.1h2.5v0.9c0.4-0.7,1.2-1.1,2.3-1.1
		c1.6,0,2.8,1.1,2.8,2.5v5.9H230.3z"/>
	<path class="st0" d="M238.7,110v-5.1c0-0.8-0.4-1.1-1.1-1.1c-0.7,0-1.2,0.3-1.2,1.1v5.1h-2.6v-8.1h2.5v0.9c0.4-0.7,1.2-1.1,2.3-1.1
		c1.6,0,2.8,1.1,2.8,2.5v5.9H238.7z"/>
	<path class="st0" d="M242.3,100.9v-2h2.6v2H242.3z M242.3,110v-8.1h2.6v8.1H242.3z"/>
	<path class="st0" d="M245.8,110V98.9h2.6v3.9c0.4-0.9,1.2-1.1,2.2-1.1c2.1,0,3.3,1.8,3.3,4.2c0,2.7-1.5,4.4-3.5,4.4
		c-0.7,0-1.5-0.3-2-1.1l0,0.9H245.8z M251.2,106c0-1.5-0.5-2.1-1.4-2.1c-0.9,0-1.5,0.6-1.5,2.1c0,1.5,0.6,2.1,1.5,2.1
		C250.6,108.1,251.2,107.5,251.2,106z"/>
	<path class="st0" d="M259.6,110c-0.1-0.2-0.2-0.4-0.2-0.7c-0.3,0.5-1.1,0.9-2.4,0.9c-1.9,0-2.7-0.9-2.7-2.5c0-1.9,1.6-2.4,3.8-2.8
		c0.8-0.1,1-0.3,1-0.7c0-0.4-0.5-0.6-1-0.6c-0.8,0-1.1,0.3-1.2,0.8h-2.3c0-1.7,1-2.9,3.7-2.9c2.6,0,3.5,1.2,3.5,3.2v5.1H259.6z
		 M259.2,106.4c-0.1,0.1-0.4,0.2-1,0.4c-1.1,0.3-1.3,0.5-1.3,1c0,0.4,0.3,0.6,0.7,0.6c1.2,0,1.6-0.8,1.6-1.5L259.2,106.4z"/>
	<path class="st0" d="M262.7,110V98.9h2.6V110H262.7z"/>
	<path class="st0" d="M268.6,106.6c0.1,0.8,0.6,1.5,1.4,1.5c0.5,0,1-0.2,1.1-0.5h2.7c-0.5,1.7-1.9,2.6-3.6,2.6
		c-2.8,0-4.2-1.5-4.2-4.4c0-2.5,1.5-4.1,4-4.1c2.3,0,3.9,1.4,3.9,4.1c0,0.3,0,0.6,0,0.9H268.6z M271.3,105.1
		c-0.1-0.9-0.5-1.3-1.3-1.3c-0.8,0-1.2,0.4-1.3,1.3H271.3z"/>
</g>
<path class="st0" d="M117,101.9h2.6v8.1h-3.3l-5.1-8.1h2.9l3,4.8V101.9z"/>
<path class="st0" d="M122.9,106.6c0.1,0.8,0.6,1.5,1.4,1.5c0.5,0,1-0.2,1.1-0.5h2.7c-0.5,1.7-1.9,2.6-3.6,2.6
	c-2.8,0-4.2-1.5-4.2-4.4c0-2.5,1.5-4.1,4-4.1c2.3,0,3.9,1.4,3.9,4.1c0,0.3,0,0.6,0,0.9H122.9z M125.5,105.1
	c-0.1-0.9-0.5-1.3-1.3-1.3c-0.8,0-1.2,0.4-1.3,1.3H125.5z"/>
<path class="st0" d="M133.7,110v-5.1c0-0.8-0.4-1.1-1.1-1.1c-0.7,0-1.2,0.3-1.2,1.1v5.1h-2.6v-8.1h2.5v0.9c0.4-0.7,1.2-1.1,2.3-1.1
	c1.6,0,2.8,1.1,2.8,2.5v5.9H133.7z"/>
<path class="st0" d="M141.1,110h-2.6v-6.3H137v-1.8h1.5v-2.2h2.6v2.2h1.7v1.8h-1.7V110z"/>
<path class="st0" d="M142.9,106c0-2.6,1.6-4.3,4.3-4.3c2.6,0,4.2,1.7,4.2,4.3c0,2.6-1.6,4.3-4.2,4.3
	C144.5,110.2,142.9,108.5,142.9,106z M148.7,106c0-1.5-0.5-2-1.6-2c-1.1,0-1.6,0.6-1.6,2s0.5,2.1,1.6,2.1
	C148.3,108,148.7,107.4,148.7,106z"/>
<path class="st0" d="M154.7,101.9v5.1c0,0.8,0.4,1.1,1.1,1.1c0.7,0,1.1-0.3,1.1-1.1v-5.1h2.6v5.5c0,1.7-0.7,2.8-3.7,2.8
	c-3,0-3.7-1.1-3.7-2.8v-5.6H154.7z"/>
<path class="st0" d="M160.3,110v-8.1h2.5v0.5c0.7-0.7,1.4-0.7,2.1-0.7h0.2v2.7c-0.2,0-0.4,0-0.6,0c-1.1,0-1.6,0.3-1.6,1.4v4.3H160.3
	z"/>
<path class="st0" d="M165.7,100.9v-2h2.6v2H165.7z M165.7,110v-8.1h2.6v8.1H165.7z"/>
<path class="st0" d="M173.9,104.4c0-0.6-0.3-0.9-1.1-0.9c-0.8,0-1.1,0.2-1.1,0.5c0,0.2,0.4,0.5,1,0.6c2.3,0.6,3.9,0.9,3.9,2.9
	c0,1.6-0.8,2.7-3.7,2.7c-2.5,0-3.9-1.1-3.9-2.8h2.7c0,0.5,0.5,1,1.3,1c0.7,0,1.1-0.1,1.1-0.5c0-0.4-0.1-0.6-0.8-0.7
	c-3.2-0.7-4-1.6-4-3.1c0-1.2,0.9-2.3,3.6-2.3c2.4,0,3.4,1,3.5,2.7H173.9z"/>
<path class="st0" d="M181,110h-2.6v-6.3h-1.5v-1.8h1.5v-2.2h2.6v2.2h1.7v1.8H181V110z"/>
<path class="st0" d="M184.9,107.2v-2.3h5.8v2.3H184.9z"/>
<path class="st1" d="M216.1,43.3V15.2h-6.5V9.4h1.1V-1.4l-2.2-1.9v-16.6c0,0,0.1-0.8-0.8-0.8l0,0c0,0,0,0,0,0c0,0,0,0,0,0l0,0
	c-0.9,0-0.8,0.8-0.8,0.8v16.6l-2.2,1.9V9.4h1.1v5.8h-6.5v28.1l-1.2,4.2v12.2h9.7h0h9.7V47.5L216.1,43.3z"/>
<g>
	<path class="st0" d="M129.8,40.5l-11.9,19.5h-8.2V40.5L97.8,59.9h-8.2l18.1-28.3h9.3v17.3l10.8-17.3h9.3v28.3h-7.3V40.5z"/>
	<path class="st0" d="M139.1,46c0-9.6,5-15.4,13.9-15.4c9,0,13.9,5.8,13.9,15.5c0,9.7-4.9,14.8-13.9,14.8
		C144.1,60.9,139.1,55.6,139.1,46z M159.7,46.1c0-6-2.4-9-6.7-9s-6.7,3-6.7,9c0,6.1,2.5,8.5,6.7,8.5
		C156.5,54.6,159.7,52.1,159.7,46.1z"/>
	<path class="st0" d="M185.9,59.9l-10.2-16.9v16.9h-6.7V31.6h7.7l9.1,15.8V31.6h6.8v28.3H185.9z"/>
</g>
<g>
	<path class="st0" d="M109.7,64.6h7.3V93h-9.3L89.6,64.6h8.2l11.9,19.5V64.6z"/>
	<path class="st0" d="M119.3,93V64.6h21.3v6.1h-14.2v4.4h13v6.1h-13v5.5h14.9V93H119.3z"/>
	<path class="st0" d="M159.7,93l-10.2-16.9V93h-6.7V64.6h7.7l9.1,15.8V64.6h6.8V93H159.7z"/>
	<path class="st0" d="M176,93V70.7h-8.1v-6.1h23.6v6.1h-8.2V93H176z"/>
	<path class="st0" d="M191.5,79c0-9.6,5-15.4,13.9-15.4c9,0,13.9,5.8,13.9,15.5c0,9.7-4.9,14.8-13.9,14.8
		C196.5,93.9,191.5,88.6,191.5,79z M212.1,79.2c0-6-2.4-9-6.7-9c-4.3,0-6.7,3-6.7,9c0,6.1,2.5,8.5,6.7,8.5
		C208.9,87.7,212.1,85.2,212.1,79.2z"/>
	<path class="st0" d="M237.2,64.6h7.5v19.5c0,6.4-4.2,9.9-11.9,9.9c-7.4,0-11.5-3.5-11.5-9.9V64.6h7.4v18.8c0,2.9,1.3,4.5,4.3,4.5
		c2.9,0,4.3-1.6,4.3-4.5V64.6z"/>
	<path class="st0" d="M264.4,93l-4.6-8.9l-5,8.9h-9.1l9.5-14.5l-8.9-13.9h9.2l4.3,8.2l4.4-8.2h9l-8.8,13.5l9.5,14.8H264.4z"/>
</g>
<g>
	<path class="st0" d="M267.8,57.5c0-0.9,0.3-1.7,1-2.4c0.7-0.7,1.5-1,2.4-1c0.9,0,1.7,0.3,2.4,1c0.7,0.7,1,1.5,1,2.4
		c0,0.9-0.3,1.7-1,2.4c-0.7,0.7-1.5,1-2.4,1c-0.9,0-1.7-0.3-2.4-1S267.8,58.5,267.8,57.5z M274.1,57.5c0-0.8-0.3-1.5-0.8-2
		s-1.2-0.8-2-0.8c-0.8,0-1.5,0.3-2,0.8c-0.6,0.6-0.8,1.2-0.8,2c0,0.8,0.3,1.5,0.8,2c0.6,0.6,1.2,0.8,2,0.8c0.8,0,1.5-0.3,2-0.8
		C273.8,59,274.1,58.3,274.1,57.5z M272.3,59.6l-1.1-1.8h-0.6v1.8H270v-4.2h1.1c1,0,1.5,0.4,1.5,1.2c0,0.5-0.3,0.9-0.8,1.1l1.1,1.9
		H272.3z M270.6,55.9v1.4c0,0,0.2,0,0.4,0c0.4,0,0.7,0,0.8-0.1c0.1-0.1,0.2-0.3,0.2-0.6c0-0.5-0.3-0.7-0.9-0.7h-0.2L270.6,55.9z"/>
</g>
</svg>
